<svg width="50" height="65" viewBox="0 0 50 65" fill="none" xmlns="http://www.w3.org/2000/svg">
<path d="M17.8174 12.984C20.941 7.90656 28.3213 7.90657 31.4449 12.984L45.3327 35.5581C48.6119 40.8883 44.777 47.75 38.5189 47.75H10.7434C4.48526 47.75 0.650389 40.8883 3.92957 35.5581L17.8174 12.984Z" stroke="black" stroke-width="2"/>
<path d="M24.275 42.2C23.5917 42.2 23.0167 41.9667 22.55 41.5C22.0833 41.0333 21.85 40.45 21.85 39.75C21.85 39.0333 22.0833 38.4583 22.55 38.025C23.0167 37.575 23.5917 37.35 24.275 37.35C24.9583 37.35 25.5333 37.575 26 38.025C26.4667 38.4583 26.7 39.0333 26.7 39.75C26.7 40.45 26.4667 41.0333 26 41.5C25.5333 41.9667 24.9583 42.2 24.275 42.2Z" fill="#5578F8"/>
<path d="M18.66 18H25.02C26.54 18 27.88 18.2933 29.04 18.88C30.2133 19.4533 31.12 20.2667 31.76 21.32C32.4133 22.3733 32.74 23.6 32.74 25C32.74 26.4 32.4133 27.6267 31.76 28.68C31.12 29.7333 30.2133 30.5533 29.04 31.14C27.88 31.7133 26.54 32 25.02 32H18.66V18ZM24.86 29.34C26.26 29.34 27.3733 28.9533 28.2 28.18C29.04 27.3933 29.46 26.3333 29.46 25C29.46 23.6667 29.04 22.6133 28.2 21.84C27.3733 21.0533 26.26 20.66 24.86 20.66H21.9V29.34H24.86Z" fill="black"/>
</svg>
